<svg width="22" height="22" viewBox="0 0 22 22" fill="none" xmlns="http://www.w3.org/2000/svg">
<path fill-rule="evenodd" clip-rule="evenodd" d="M5.863 0H16.126C19.866 0 22 2.112 22 5.863V16.137C22 19.866 19.877 22 16.137 22H5.863C2.112 22 0 19.866 0 16.137V5.863C0 2.112 2.112 0 5.863 0ZM11.9027 11.9126H15.0267C15.5327 11.9016 15.9397 11.4946 15.9397 10.9886C15.9397 10.4826 15.5327 10.0756 15.0267 10.0756H11.9027V6.97356C11.9027 6.46756 11.4957 6.06056 10.9897 6.06056C10.4837 6.06056 10.0767 6.46756 10.0767 6.97356V10.0756H6.96372C6.72172 10.0756 6.49072 10.1746 6.31472 10.3396C6.14972 10.5156 6.05072 10.7455 6.05072 10.9886C6.05072 11.4946 6.45772 11.9016 6.96372 11.9126H10.0767V15.0256C10.0767 15.5316 10.4837 15.9386 10.9897 15.9386C11.4957 15.9386 11.9027 15.5316 11.9027 15.0256V11.9126Z" fill="#C5B3A0"/>
</svg>
