<svg width="22" height="22" viewBox="0 0 22 22" fill="none" xmlns="http://www.w3.org/2000/svg">
<path d="M20 4.4H14.6706C13.8024 4.4 13.3466 3.3697 13.9306 2.72733L15.3832 1.12943C15.5632 0.931498 15.5642 0.629541 15.3857 0.430348V0.430348C15.1794 0.20013 14.8192 0.198859 14.6113 0.427616L11.7399 3.58607C11.3432 4.0225 10.6568 4.0225 10.2601 3.58607L7.38847 0.427312C7.18017 0.198185 6.81983 0.198185 6.61153 0.427313V0.427313C6.42929 0.627782 6.42952 0.934007 6.61207 1.1342L8.06375 2.72621C8.64918 3.36823 8.19368 4.4 7.32482 4.4H2C0.9 4.4 0 5.379 0 6.6V19.8C0 21.01 0.9 22 2 22H20C21.1 22 22 21.01 22 19.8V6.6C22 5.379 21.1 4.4 20 4.4ZM20 18.8C20 19.3523 19.5523 19.8 19 19.8H3C2.44772 19.8 2 19.3523 2 18.8V7.6C2 7.04771 2.44772 6.6 3 6.6H19C19.5523 6.6 20 7.04772 20 7.6V18.8ZM9.53217 9.76308C8.86622 9.34448 8 9.82313 8 10.6097V15.7903C8 16.5769 8.86622 17.0555 9.53217 16.6369L13.6531 14.0466C14.2768 13.6546 14.2768 12.7454 13.6531 12.3534L9.53217 9.76308Z" fill="#C5B3A0"/>
</svg>
