<svg width="22" height="22" viewBox="0 0 22 22" fill="none" xmlns="http://www.w3.org/2000/svg">
<path d="M7.95917 20.6507V17.2872C7.95917 16.4286 8.6357 15.7325 9.47024 15.7325H12.5209C12.9217 15.7325 13.306 15.8963 13.5894 16.1879C13.8728 16.4794 14.032 16.8749 14.032 17.2872V20.6507C14.0294 21.0076 14.1655 21.3509 14.4099 21.6042C14.6544 21.8575 14.987 22 15.334 22H17.4153C18.3873 22.0026 19.3204 21.6071 20.0086 20.9009C20.6969 20.1946 21.0837 19.2357 21.0837 18.2356V8.65354C21.0836 7.84571 20.7356 7.07943 20.1333 6.56114L13.0531 0.743456C11.8215 -0.276582 10.0569 -0.243648 8.86201 0.821677L1.94338 6.56114C1.31262 7.06415 0.935622 7.8327 0.916992 8.65354V18.2258C0.916992 20.3102 2.55939 22 4.58539 22H6.61916C7.33978 22 7.92544 21.4018 7.93066 20.6605L7.95917 20.6507Z" fill="#C5B3A0"/>
</svg>
