<svg width="22" height="22" viewBox="0 0 22 22" fill="none" xmlns="http://www.w3.org/2000/svg">
<path d="M19.8 5.6C19.8 6.15229 19.3523 6.6 18.8 6.6H3.2C2.64772 6.6 2.2 6.15229 2.2 5.6V5.4C2.2 4.84772 2.64772 4.4 3.2 4.4H18.8C19.3523 4.4 19.8 4.84772 19.8 5.4V5.6ZM17.6 1C17.6 0.447715 17.1523 0 16.6 0H5.4C4.84771 0 4.4 0.447715 4.4 1V1.2C4.4 1.75228 4.84772 2.2 5.4 2.2H16.6C17.1523 2.2 17.6 1.75228 17.6 1.2V1ZM22 11V19.8C22 21.01 21.01 22 19.8 22H2.2C0.99 22 0 21.01 0 19.8V11C0 9.79 0.99 8.8 2.2 8.8H19.8C21.01 8.8 22 9.79 22 11ZM13.7853 16.2773C14.4815 15.899 14.4822 14.8998 13.7864 14.5206L10.2785 12.6088C9.61218 12.2456 8.8 12.728 8.8 13.4869V17.3046C8.8 18.0629 9.61108 18.5453 10.2774 18.1833L13.7853 16.2773Z" fill="#C5B3A0"/>
</svg>
