<svg width="22" height="22" viewBox="0 0 22 22" fill="none" xmlns="http://www.w3.org/2000/svg">
<path fill-rule="evenodd" clip-rule="evenodd" d="M20.2414 12.738C20.6349 12.947 20.9384 13.277 21.152 13.607C21.5679 14.289 21.5342 15.125 21.1295 15.862L20.3426 17.182C19.9266 17.886 19.151 18.326 18.3528 18.326C17.9594 18.326 17.521 18.216 17.1612 17.996C16.8689 17.809 16.5317 17.743 16.172 17.743C15.0591 17.743 14.126 18.656 14.0923 19.745C14.0923 21.01 13.0581 22 11.7653 22H10.2364C8.93243 22 7.89821 21.01 7.89821 19.745C7.87572 18.656 6.94268 17.743 5.82977 17.743C5.45879 17.743 5.12155 17.809 4.84051 17.996C4.48078 18.216 4.03112 18.326 3.64891 18.326C2.83952 18.326 2.06385 17.886 1.64792 17.182L0.87225 15.862C0.456313 15.147 0.43383 14.289 0.849767 13.607C1.02963 13.277 1.36688 12.947 1.74909 12.738C2.06385 12.584 2.2662 12.331 2.45731 12.034C3.01938 11.088 2.68214 9.845 1.72661 9.284C0.613695 8.657 0.253966 7.26 0.894733 6.171L1.64792 4.873C2.29992 3.784 3.69387 3.399 4.81803 4.037C5.79604 4.565 7.06633 4.213 7.63965 3.278C7.81952 2.97 7.92069 2.64 7.89821 2.31C7.87572 1.881 7.99938 1.474 8.21297 1.144C8.62891 0.462 9.38209 0.022 10.2027 0H11.7878C12.6196 0 13.3728 0.462 13.7888 1.144C13.9911 1.474 14.126 1.881 14.0923 2.31C14.0698 2.64 14.171 2.97 14.3508 3.278C14.9242 4.213 16.1945 4.565 17.1837 4.037C18.2966 3.399 19.7018 3.784 20.3426 4.873L21.0958 6.171C21.7478 7.26 21.388 8.657 20.2639 9.284C19.3084 9.845 18.9711 11.088 19.5444 12.034C19.7243 12.331 19.9266 12.584 20.2414 12.738ZM7.81842 11.0114C7.81842 12.7384 9.24609 14.1134 11.011 14.1134C12.7759 14.1134 14.1699 12.7384 14.1699 11.0114C14.1699 9.28442 12.7759 7.89842 11.011 7.89842C9.24609 7.89842 7.81842 9.28442 7.81842 11.0114Z" fill="#C5B3A0"/>
</svg>
